<?xml version="1.0" encoding="UTF-8" standalone="no"?>
<svg width="640px" height="60px" viewBox="0 0 640 60" version="1.1" xmlns="http://www.w3.org/2000/svg" xmlns:xlink="http://www.w3.org/1999/xlink" xmlns:sketch="http://www.bohemiancoding.com/sketch/ns">
    <title>benefit-city</title>
    <description>Created with Sketch (http://www.bohemiancoding.com/sketch)</description>
    <defs></defs>
    <g id="Page-1" stroke="#000" stroke-width="1" fill="none" fill-rule="none" sketch:type="MSPage">
        <g id="benefit-city" sketch:type="MSArtboardGroup" stroke="#8C9899" stroke-width="2" stroke-linecap="round" stroke-linejoin="round">
            <g id="Group" sketch:type="MSLayerGroup" transform="translate(21.000000, 1.000000)">
                <path d="M97,6 L137,6 L137,58 L97,58 L97,6 Z M113,48 L121,48 L121,58 L113,58 L113,48 Z M101,34 L109,34 L109,42 L101,42 L101,34 Z M113,34 L121,34 L121,42 L113,42 L113,34 Z M125,34 L133,34 L133,42 L125,42 L125,34 Z M101,22 L109,22 L109,30 L101,30 L101,22 Z M113,22 L121,22 L121,30 L113,30 L113,22 Z M125,22 L133,22 L133,30 L125,30 L125,22 Z M101,10 L109,10 L109,18 L101,18 L101,10 Z M113,10 L121,10 L121,18 L113,18 L113,10 Z M125,10 L133,10 L133,18 L125,18 L125,10 Z M129,0 L105,0 L97,6 L137,6 L129,0 L129,0 Z" id="Imported-Layers" sketch:type="MSShapeGroup"></path>
                <path d="M178,58 L200,58 L200,18 L178,18 L178,58 Z M182,10 L196,10 L196,18 L182,18 L182,10 Z M188,10 L188,0 L188,10 Z M218,24 L236,24 L236,58 L218,58 L218,24 Z M222,18 L232,18 L232,24 L222,24 L222,18 Z M200,34 L218,34 L200,34 Z M200,58 L218,58 L200,58 Z M186,14 L192,14 L186,14 Z M182,26 L196,26 L182,26 Z M182,22 L196,22 L182,22 Z M182,30 L196,30 L182,30 Z M182,34 L196,34 L182,34 Z M182,38 L196,38 L182,38 Z M182,42 L196,42 L182,42 Z M182,46 L196,46 L182,46 Z M222,28 L232,28 L222,28 Z M222,32 L232,32 L222,32 Z M222,36 L232,36 L222,36 Z M222,40 L232,40 L222,40 Z M222,48 L232,48 L222,48 Z M222,44 L232,44 L222,44 Z M204,40 L214,40 L204,40 Z M204,44 L214,44 L204,44 Z M204,48 L214,48 L204,48 Z M186,58 L190,58 L190,52 L186,52 L186,58 Z M226,52 L230,52 L230,58 L226,58 L226,52 Z" id="Imported-Layers" sketch:type="MSShapeGroup"></path>
                <path d="M269,22 L297,22 L297,58 L269,58 L269,22 Z M275,22 L291,22 L291,8 L275,8 L275,22 Z M283,8 L283,0 L283,8 Z M303,12 L327,12 L327,58 L303,58 L303,12 Z M307,18 L323,18 L307,18 Z M307,36 L323,36 L307,36 Z M307,30 L323,30 L307,30 Z M307,24 L323,24 L307,24 Z M307,42 L323,42 L307,42 Z M307,48 L323,48 L307,48 Z M275,30 L291,30 L275,30 Z M275,38 L291,38 L275,38 Z M275,46 L291,46 L275,46 Z M279,12 L287,12 L279,12 Z M279,18 L287,18 L279,18 Z M281,58 L285,58 L285,52 L281,52 L281,58 Z M313,58 L317,58 L317,54 L313,54 L313,58 Z" id="Imported-Layers" sketch:type="MSShapeGroup"></path>
                <path d="M372,58 L404,58 L372,58 Z M388,10 L388,0 L388,10 Z M380,48 L396,48 L380,48 Z M380,40 L396,40 L380,40 Z M392,31 L392,58 L392,31 Z M384,31 L384,58 L384,31 Z M402,18 L399,18 C397.268,13.385 393.033,10 388,10 C382.967,10 378.733,13.385 377,18 L374,18 L374,24 L377,24 C378.733,28.616 382.967,32 388,32 C393.033,32 397.268,28.616 399,24 L402,24 L402,18 L402,18 Z M376,18 L400,18 L376,18 Z M376,24 L400,24 L376,24 Z" id="Imported-Layers" sketch:type="MSShapeGroup"></path>
                <path d="M469,58 L487,58 L487,24 L469,24 L469,58 Z M471,24 L485,24 L485,12 L471,12 L471,24 Z M478,5 L478,0 L478,5 Z M467,24 L489,24 L467,24 Z M469,12 L487,12 L469,12 Z M461,58 L495,58 L461,58 Z M473,58 L483,58 L483,50 L473,50 L473,58 Z M449,10 L464,15 L449,10 Z M449,26 L464,21 L449,26 Z M459,18 L453,18 L459,18 Z M507,10 L492,15 L507,10 Z M507,26 L492,21 L507,26 Z M497,18 L503,18 L497,18 Z M471,12 C471,8.134 474.134,5 478,5 C481.866,5 485,8.134 485,12 L471,12 Z" id="Imported-Layers" sketch:type="MSShapeGroup"></path>
                <path d="M539,58 L597,58 L539,58 Z M557,12 L579,12 L579,58 L557,58 L557,12 Z M585,58 L595,58 L595,34 L585,34 L585,58 Z M541,58 L551,58 L551,34 L541,34 L541,58 Z M549,34 L549,30 L549,34 Z M587,34 L587,30 L587,34 Z M563,12 L573,12 L573,6 L563,6 L563,12 Z M561,18 L575,18 L561,18 Z M561,24 L575,24 L561,24 Z M561,30 L575,30 L561,30 Z M561,36 L575,36 L561,36 Z M561,42 L575,42 L561,42 Z M561,48 L575,48 L561,48 Z" id="Imported-Layers" sketch:type="MSShapeGroup"></path>
                <path d="M48,58 L43,24 L15,24 L10,58 L24,58 L24,48 C24,45 26,44 29,44 C32,44 34,45 34,48 L34,58 L48,58 L48,58 Z M26,32 L32,32 L26,32 Z M29,29 L29,35 L29,29 Z M46,11 C46,13.351 44.088,15 42,15 C39.912,15 38,13.351 38,11 L38,10 L33,10 L33,11 C33,13.351 31.09,15 29,15 C26.912,15 25,13.351 25,11 L25,10 L20,10 L20,11 C20,13.09 18.088,15 16,15 C13.912,15 12,13.09 12,11 L12,10 L8,10 L8,20 C8,22.09 9.912,24 12,24 L46,24 C48.09,24 50,22.09 50,20 L50,10 L46,10 L46,11 L46,11 Z M29,0 L29,15 L29,0 Z M30,4 L29,4 L29,0 L30,0 L37,2 L30,4 L30,4 Z M48,58 L58,58 L58,32 L50,32 L50,38 L45,38 L48,58 Z M10,58 L0,58 L0,32 L8,32 L8,38 L13,38 L10,58 Z" id="Imported-Layers" sketch:type="MSShapeGroup"></path>
            </g>
        </g>
    </g>
</svg>
