<?xml version="1.0" encoding="iso-8859-1"?>
<!-- Generator: Adobe Illustrator 19.0.0, SVG Export Plug-In . SVG Version: 6.00 Build 0)  -->
<svg version="1.1" id="Layer_1" xmlns="http://www.w3.org/2000/svg" xmlns:xlink="http://www.w3.org/1999/xlink" x="0px" y="0px"
	 viewBox="0 0 505 505" style="enable-background:new 0 0 505 505;" xml:space="preserve">
<circle style="fill:#FFD05B;" cx="252.5" cy="252.5" r="252.5"/>
<path style="fill:#324A5E;" d="M375.5,427.5h-246c-2.6,0-4.8-2.1-4.8-4.8V82.2c0-2.6,2.1-4.8,4.8-4.8h246c2.6,0,4.8,2.1,4.8,4.8
	v340.6C380.2,425.4,378.1,427.5,375.5,427.5z"/>
<rect id="SVGCleanerId_0" x="146.9" y="116.1" style="fill:#FFFFFF;" width="211.2" height="266.1"/>
<g>
	<path style="fill:#2B3B4E;" d="M296,101.1h-60.3c-2.5,0-4.6-2.1-4.6-4.6l0,0c0-2.5,2.1-4.6,4.6-4.6H296c2.5,0,4.6,2,4.6,4.6l0,0
		C300.6,99,298.5,101.1,296,101.1z"/>
	<path style="fill:#2B3B4E;" d="M217,101.1h-7.9c-2.5,0-4.6-2.1-4.6-4.6l0,0c0-2.5,2.1-4.6,4.6-4.6h7.9c2.5,0,4.6,2,4.6,4.6l0,0
		C221.5,99,219.5,101.1,217,101.1z"/>
	<circle style="fill:#2B3B4E;" cx="252.5" cy="404.2" r="12.5"/>
</g>
<g>
	<rect id="SVGCleanerId_0_1_" x="146.9" y="116.1" style="fill:#FFFFFF;" width="211.2" height="266.1"/>
</g>
<g>
	<rect x="178.7" y="255.5" style="fill:#E6E9EE;" width="147.5" height="10.8"/>
	<rect x="178.7" y="284.9" style="fill:#E6E9EE;" width="147.5" height="10.8"/>
	<rect x="178.7" y="314.4" style="fill:#E6E9EE;" width="147.5" height="10.8"/>
	<rect x="178.7" y="343.8" style="fill:#E6E9EE;" width="92.6" height="10.8"/>
</g>
<polygon style="fill:#54C0EB;" points="262.1,224 237.8,181.3 225,216.5 218,213.9 236.4,163.7 260.6,206.4 280,153.4 287,156 "/>
<g>
	<circle style="fill:#84DBFF;" cx="221.5" cy="215.2" r="11.3"/>
	<circle style="fill:#84DBFF;" cx="237.1" cy="172.5" r="11.3"/>
	<circle style="fill:#84DBFF;" cx="261.4" cy="215.2" r="11.3"/>
	<circle style="fill:#84DBFF;" cx="283.5" cy="154.7" r="11.3"/>
</g>
<g>
</g>
<g>
</g>
<g>
</g>
<g>
</g>
<g>
</g>
<g>
</g>
<g>
</g>
<g>
</g>
<g>
</g>
<g>
</g>
<g>
</g>
<g>
</g>
<g>
</g>
<g>
</g>
<g>
</g>
</svg>
