<?xml version="1.0" encoding="iso-8859-1"?>
<!-- Generator: Adobe Illustrator 19.0.0, SVG Export Plug-In . SVG Version: 6.00 Build 0)  -->
<svg version="1.1" id="Layer_1" xmlns="http://www.w3.org/2000/svg" xmlns:xlink="http://www.w3.org/1999/xlink" x="0px" y="0px"
	 viewBox="0 0 505 505" style="enable-background:new 0 0 505 505;" xml:space="preserve">
<path style="fill:#FD8469;" d="M505,252.55c0,114.7-76.4,211.4-181.1,242.2c-4,1.2-8,2.2-12,3.2c-1.7,0.5-3.5,0.9-5.2,1.2
	c-17.4,3.8-35.6,5.8-54.2,5.8c-21.5,0-42.3-2.7-62.3-7.8c-3.1-0.8-6.1-1.6-9.2-2.5C76.4,463.95,0,367.15,0,252.55
	C0,113.05,113.1,0.05,252.5,0.05C392,0.05,505,113.05,505,252.55z"/>
<polygon style="fill:#FFFFFF;" points="325.6,86.15 325.6,139.75 379.1,139.75 379.1,418.85 125.9,418.85 125.9,86.15 "/>
<polygon style="fill:#E6E9EE;" points="325.6,86.15 379.1,139.75 325.6,139.75 "/>
<path style="fill:#4CDBC4;" d="M247.7,377.85v-16c-20.1-2-38.1-10-54.1-23.9l16-19.1c12.3,10.7,25,17.1,38,19.1v-42.6
	c-16.6-4-28.7-9.2-36.4-15.6s-11.5-16-11.5-28.7s4.4-23,13.3-31.1c8.9-8.1,20.4-12.4,34.6-13.2v-11h14.1v11.2
	c16.1,1.2,31.3,6.7,45.7,16.5l-14.2,20.1c-9.7-6.9-20.1-11.1-31.4-12.7v41.3h0.7c16.8,4,29.2,9.3,37.1,16s11.9,16.5,11.9,29.3
	s-4.5,23.3-13.6,31.3c-9.1,8.1-21.1,12.5-36,13.2v15.8h-14.2V377.85z M232.2,236.05c-3.7,3.3-5.6,7.4-5.6,12.3s1.5,8.8,4.4,11.6
	c2.9,2.9,8.5,5.6,16.7,8.2v-38C241.1,230.75,235.9,232.75,232.2,236.05z M278.4,332.35c4.1-3.4,6.1-7.6,6.1-12.7s-1.6-9.2-4.8-12.2
	c-3.2-3-9.2-5.8-18-8.5v39.6C268.8,337.75,274.3,335.75,278.4,332.35z"/>
<g>
</g>
<g>
</g>
<g>
</g>
<g>
</g>
<g>
</g>
<g>
</g>
<g>
</g>
<g>
</g>
<g>
</g>
<g>
</g>
<g>
</g>
<g>
</g>
<g>
</g>
<g>
</g>
<g>
</g>
</svg>
